# xmcd CD database file
#
# Track frame offsets:
#	150
#	13574
#	31394
#	51133
#	70637
#	87984
#	105811
#	124284
#	143212
#	158056
#
# Disc length: 2322 seconds
#
# Revision: 3
# Processed by: cddbd v1.5.1PL2 Copyright (c) Steve Scherf et al.
# Submitted via: CDex 1.51
#
DISCID=7709100a
DTITLE=GREAT WHITE - Great White
DYEAR=1984
DGENRE=Hard Rock
TTITLE0=Out Of The Night
TTITLE1=Stick It
TTITLE2=Substitute
TTITLE3=Bad Boys
TTITLE4=On Your Knees
TTITLE5=Streetkiller
TTITLE6=No Better Than Hell
TTITLE7=Hold On
TTITLE8=Nightmares
TTITLE9=Dead End
EXTD=YEAR: 1984
EXTT0=
EXTT1=
EXTT2=
EXTT3=
EXTT4=
EXTT5=
EXTT6=
EXTT7=
EXTT8=
EXTT9=
PLAYORDER=
